<?xml version="1.0" encoding="UTF-8" standalone="no"?>
<svg
   xmlns:dc="http://purl.org/dc/elements/1.1/"
   xmlns:cc="http://creativecommons.org/ns#"
   xmlns:rdf="http://www.w3.org/1999/02/22-rdf-syntax-ns#"
   xmlns:svg="http://www.w3.org/2000/svg"
   xmlns="http://www.w3.org/2000/svg"
   xmlns:sodipodi="http://sodipodi.sourceforge.net/DTD/sodipodi-0.dtd"
   xmlns:inkscape="http://www.inkscape.org/namespaces/inkscape"
   width="400"
   height="200"
   viewBox="0 0 160 80"
   version="1.1"
   id="svg108"
   sodipodi:docname="Repeating-Triangles.svg"
   inkscape:version="1.0.2-2 (e86c870879, 2021-01-15)">
  <metadata
     id="metadata114">
    <rdf:RDF>
      <cc:Work
         rdf:about="">
        <dc:format>image/svg+xml</dc:format>
        <dc:type
           rdf:resource="http://purl.org/dc/dcmitype/StillImage" />
      </cc:Work>
    </rdf:RDF>
  </metadata>
  <defs
     id="defs112" />
  <sodipodi:namedview
     pagecolor="#ffffff"
     bordercolor="#666666"
     borderopacity="1"
     objecttolerance="10"
     gridtolerance="10"
     guidetolerance="10"
     inkscape:pageopacity="0"
     inkscape:pageshadow="2"
     inkscape:window-width="1920"
     inkscape:window-height="1017"
     id="namedview110"
     showgrid="false"
     inkscape:zoom="2.6"
     inkscape:cx="200"
     inkscape:cy="100"
     inkscape:window-x="-8"
     inkscape:window-y="-8"
     inkscape:window-maximized="1"
     inkscape:current-layer="svg108" />
  <rect
     fill="#e9d4be"
     width="160"
     height="80"
     id="rect2" />
  <g
     fill="#f8e2cb"
     id="g106">
    <polygon
       points="0 10 0 0 10 0"
       id="polygon4" />
    <polygon
       points="0 40 0 30 10 30"
       id="polygon6" />
    <polygon
       points="0 30 0 20 10 20"
       id="polygon8" />
    <polygon
       points="0 70 0 60 10 60"
       id="polygon10" />
    <polygon
       points="0 80 0 70 10 70"
       id="polygon12" />
    <polygon
       points="50 80 50 70 60 70"
       id="polygon14" />
    <polygon
       points="10 20 10 10 20 10"
       id="polygon16" />
    <polygon
       points="10 40 10 30 20 30"
       id="polygon18" />
    <polygon
       points="20 10 20 0 30 0"
       id="polygon20" />
    <polygon
       points="10 10 10 0 20 0"
       id="polygon22" />
    <polygon
       points="30 20 30 10 40 10"
       id="polygon24" />
    <polygon
       points="20 20 20 40 40 20"
       id="polygon26" />
    <polygon
       points="40 10 40 0 50 0"
       id="polygon28" />
    <polygon
       points="40 20 40 10 50 10"
       id="polygon30" />
    <polygon
       points="40 40 40 30 50 30"
       id="polygon32" />
    <polygon
       points="30 40 30 30 40 30"
       id="polygon34" />
    <polygon
       points="40 60 40 50 50 50"
       id="polygon36" />
    <polygon
       points="50 30 50 20 60 20"
       id="polygon38" />
    <polygon
       points="40 60 40 80 60 60"
       id="polygon40" />
    <polygon
       points="50 40 50 60 70 40"
       id="polygon42" />
    <polygon
       points="60 0 60 20 80 0"
       id="polygon44" />
    <polygon
       points="70 30 70 20 80 20"
       id="polygon46" />
    <polygon
       points="70 40 70 30 80 30"
       id="polygon48" />
    <polygon
       points="60 60 60 80 80 60"
       id="polygon50" />
    <polygon
       points="80 10 80 0 90 0"
       id="polygon52" />
    <polygon
       points="70 40 70 60 90 40"
       id="polygon54" />
    <polygon
       points="80 60 80 50 90 50"
       id="polygon56" />
    <polygon
       points="60 30 60 20 70 20"
       id="polygon58" />
    <polygon
       points="80 70 80 80 90 80 100 70"
       id="polygon60" />
    <polygon
       points="80 10 80 40 110 10"
       id="polygon62" />
    <polygon
       points="110 40 110 30 120 30"
       id="polygon64" />
    <polygon
       points="90 40 90 70 120 40"
       id="polygon66" />
    <polygon
       points="10 50 10 80 40 50"
       id="polygon68" />
    <polygon
       points="110 60 110 50 120 50"
       id="polygon70" />
    <polygon
       points="100 60 100 80 120 60"
       id="polygon72" />
    <polygon
       points="110 0 110 20 130 0"
       id="polygon74" />
    <polygon
       points="120 30 120 20 130 20"
       id="polygon76" />
    <polygon
       points="130 10 130 0 140 0"
       id="polygon78" />
    <polygon
       points="130 30 130 20 140 20"
       id="polygon80" />
    <polygon
       points="120 40 120 30 130 30"
       id="polygon82" />
    <polygon
       points="130 50 130 40 140 40"
       id="polygon84" />
    <polygon
       points="120 50 120 70 140 50"
       id="polygon86" />
    <polygon
       points="110 70 110 80 130 80 140 70"
       id="polygon88" />
    <polygon
       points="140 10 140 0 150 0"
       id="polygon90" />
    <polygon
       points="140 20 140 10 150 10"
       id="polygon92" />
    <polygon
       points="140 40 140 30 150 30"
       id="polygon94" />
    <polygon
       points="140 50 140 40 150 40"
       id="polygon96" />
    <polygon
       points="140 70 140 60 150 60"
       id="polygon98" />
    <polygon
       points="150 20 150 40 160 30 160 20"
       id="polygon100" />
    <polygon
       points="150 60 150 50 160 50"
       id="polygon102" />
    <polygon
       points="140 70 140 80 150 80 160 70"
       id="polygon104" />
  </g>
</svg>
